<svg xmlns="http://www.w3.org/2000/svg" xmlns:xlink="http://www.w3.org/1999/xlink" width="64" zoomAndPan="magnify" viewBox="0 0 48 48" height="64" preserveAspectRatio="xMidYMid meet" version="1.0"><defs><clipPath id="865dd81b7c"><path d="M 42 19 L 46.371094 19 L 46.371094 23 L 42 23 Z M 42 19 " clip-rule="nonzero"/></clipPath></defs><path fill="#f4a51c" d="M 28.476562 25.792969 C 27.386719 31.238281 22.578125 35.34375 16.808594 35.34375 C 10.238281 35.34375 4.90625 30.015625 4.90625 23.441406 C 4.90625 16.867188 10.238281 11.539062 16.808594 11.539062 C 18.695312 11.539062 20.476562 11.980469 22.058594 12.761719 L 22.929688 10.601562 C 21.074219 9.714844 19 9.21875 16.808594 9.21875 C 8.953125 9.21875 2.585938 15.585938 2.585938 23.441406 C 2.585938 31.296875 8.953125 37.664062 16.808594 37.664062 C 23.863281 37.664062 29.714844 32.53125 30.835938 25.792969 Z M 28.476562 25.792969 " fill-opacity="1" fill-rule="nonzero"/><path fill="#f4a51c" d="M 6.707031 23.441406 C 6.707031 29.019531 11.230469 33.542969 16.808594 33.542969 C 21.578125 33.542969 25.570312 30.238281 26.632812 25.792969 L 24.925781 25.792969 C 23.90625 29.316406 20.660156 31.890625 16.808594 31.890625 C 12.140625 31.890625 8.359375 28.109375 8.359375 23.441406 C 8.359375 18.773438 12.140625 14.992188 16.808594 14.992188 C 18.238281 14.992188 19.585938 15.347656 20.765625 15.976562 L 21.382812 14.4375 C 20.011719 13.738281 18.457031 13.34375 16.808594 13.34375 C 11.230469 13.34375 6.707031 17.863281 6.707031 23.441406 Z M 6.707031 23.441406 " fill-opacity="1" fill-rule="nonzero"/><path fill="#f4a51c" d="M 10.371094 23.441406 C 10.371094 26.996094 13.253906 29.878906 16.808594 29.878906 C 19.53125 29.878906 21.863281 28.183594 22.800781 25.792969 L 20.84375 25.792969 C 20.03125 27.179688 18.53125 28.113281 16.808594 28.113281 C 14.230469 28.113281 12.136719 26.019531 12.136719 23.441406 C 12.136719 20.863281 14.230469 18.773438 16.808594 18.773438 C 17.738281 18.773438 18.609375 19.046875 19.335938 19.515625 L 20.007812 17.855469 C 19.0625 17.316406 17.972656 17.003906 16.808594 17.003906 C 13.253906 17.003906 10.371094 19.886719 10.371094 23.441406 Z M 10.371094 23.441406 " fill-opacity="1" fill-rule="nonzero"/><path fill="#909090" d="M 15.46875 22.71875 L 15.46875 19.949219 L 15.988281 19.949219 L 17.292969 21.625 L 18.574219 19.949219 L 19.089844 19.949219 L 19.089844 22.71875 L 18.492188 22.71875 L 18.492188 21.007812 C 18.492188 20.9375 18.5 20.839844 18.515625 20.710938 C 18.445312 20.851562 18.394531 20.949219 18.351562 21 L 17.3125 22.386719 L 17.183594 22.386719 L 16.140625 20.996094 C 16.066406 20.898438 16.011719 20.800781 15.972656 20.710938 C 15.984375 20.824219 15.992188 20.921875 15.992188 21.007812 L 15.992188 22.71875 Z M 15.46875 22.71875 " fill-opacity="1" fill-rule="nonzero"/><path fill="#909090" d="M 20.445312 22.71875 L 20.445312 19.949219 L 23.28125 19.949219 L 23.28125 20.421875 L 21.09375 20.421875 L 21.09375 21.039062 L 22.371094 21.039062 L 22.371094 21.511719 L 21.09375 21.511719 L 21.09375 22.199219 L 23.3125 22.199219 L 23.3125 22.71875 Z M 20.445312 22.71875 " fill-opacity="1" fill-rule="nonzero"/><path fill="#909090" d="M 24.496094 22.71875 L 24.496094 19.949219 L 24.9375 19.949219 L 26.886719 21.582031 C 27.027344 21.699219 27.128906 21.800781 27.203125 21.882812 C 27.183594 21.625 27.175781 21.464844 27.175781 21.402344 L 27.175781 19.949219 L 27.757812 19.949219 L 27.757812 22.71875 L 27.316406 22.71875 L 25.28125 21.007812 C 25.195312 20.933594 25.117188 20.859375 25.050781 20.78125 C 25.066406 20.960938 25.074219 21.105469 25.074219 21.222656 L 25.074219 22.71875 Z M 24.496094 22.71875 " fill-opacity="1" fill-rule="nonzero"/><path fill="#909090" d="M 28.636719 22.71875 L 30.207031 19.949219 L 30.828125 19.949219 L 32.417969 22.71875 L 31.695312 22.71875 L 31.363281 22.113281 L 29.605469 22.113281 L 29.28125 22.71875 Z M 29.878906 21.613281 L 31.09375 21.613281 L 30.496094 20.484375 Z M 29.878906 21.613281 " fill-opacity="1" fill-rule="nonzero"/><path fill="#555656" d="M 34.597656 20.445312 L 34.597656 22.71875 L 33.953125 22.71875 L 33.953125 20.445312 L 32.679688 20.445312 L 32.679688 19.949219 L 35.875 19.949219 L 35.875 20.445312 Z M 34.597656 20.445312 " fill-opacity="1" fill-rule="nonzero"/><path fill="#555656" d="M 36.667969 19.949219 L 37.3125 19.949219 L 37.3125 22.71875 L 36.667969 22.71875 Z M 36.667969 19.949219 " fill-opacity="1" fill-rule="nonzero"/><path fill="#555656" d="M 41.054688 20.445312 L 39.3125 20.445312 L 39.3125 22.199219 L 41.054688 22.199219 L 41.054688 21.601562 L 41.699219 21.738281 L 41.699219 22.0625 C 41.699219 22.324219 41.652344 22.496094 41.554688 22.585938 C 41.457031 22.675781 41.277344 22.71875 41.011719 22.71875 L 39.359375 22.71875 C 39.09375 22.71875 38.910156 22.675781 38.816406 22.585938 C 38.71875 22.496094 38.671875 22.324219 38.671875 22.0625 L 38.671875 20.605469 C 38.671875 20.347656 38.71875 20.171875 38.816406 20.082031 C 38.910156 19.992188 39.09375 19.949219 39.359375 19.949219 L 41.011719 19.949219 C 41.277344 19.949219 41.457031 19.992188 41.554688 20.082031 C 41.652344 20.171875 41.699219 20.347656 41.699219 20.605469 L 41.699219 20.867188 L 41.054688 20.96875 L 41.054688 20.441406 Z M 41.054688 20.445312 " fill-opacity="1" fill-rule="nonzero"/><g clip-path="url(#865dd81b7c)"><path fill="#555656" d="M 45.433594 20.433594 L 43.613281 20.433594 L 43.613281 21.027344 L 45.34375 21.027344 C 45.609375 21.027344 45.792969 21.074219 45.890625 21.164062 C 45.988281 21.253906 46.039062 21.425781 46.039062 21.683594 L 46.039062 22.066406 C 46.039062 22.324219 45.992188 22.496094 45.890625 22.585938 C 45.792969 22.675781 45.609375 22.722656 45.347656 22.722656 L 43.632812 22.722656 C 43.367188 22.722656 43.1875 22.675781 43.089844 22.585938 C 42.988281 22.496094 42.941406 22.324219 42.941406 22.066406 L 42.941406 21.992188 L 43.507812 21.871094 L 43.507812 22.199219 L 45.46875 22.199219 L 45.46875 21.566406 L 43.738281 21.566406 C 43.476562 21.566406 43.292969 21.519531 43.195312 21.433594 C 43.101562 21.34375 43.050781 21.167969 43.050781 20.910156 L 43.050781 20.605469 C 43.050781 20.347656 43.101562 20.175781 43.195312 20.085938 C 43.292969 19.996094 43.476562 19.949219 43.738281 19.949219 L 45.3125 19.949219 C 45.566406 19.949219 45.746094 19.992188 45.847656 20.078125 C 45.949219 20.164062 46 20.324219 46 20.554688 L 46 20.617188 L 45.433594 20.75 Z M 45.433594 20.433594 " fill-opacity="1" fill-rule="nonzero"/></g><path fill="#404040" d="M 45.804688 24.9375 C 45.804688 25.242188 45.558594 25.492188 45.257812 25.492188 L 20.050781 25.492188 C 19.75 25.492188 19.507812 25.242188 19.507812 24.9375 L 19.507812 23.890625 C 19.507812 23.585938 19.75 23.335938 20.050781 23.335938 L 45.257812 23.335938 C 45.558594 23.335938 45.804688 23.585938 45.804688 23.890625 Z M 45.804688 24.9375 " fill-opacity="1" fill-rule="nonzero"/><path fill="#ffffff" d="M 20.660156 24.246094 C 20.660156 24.160156 20.671875 24.085938 20.691406 24.027344 C 20.714844 23.96875 20.746094 23.917969 20.785156 23.878906 C 20.824219 23.84375 20.871094 23.8125 20.929688 23.796875 C 20.984375 23.78125 21.050781 23.773438 21.121094 23.773438 L 21.460938 23.773438 C 21.476562 23.773438 21.488281 23.777344 21.496094 23.785156 C 21.503906 23.796875 21.511719 23.808594 21.511719 23.824219 C 21.511719 23.835938 21.503906 23.851562 21.496094 23.859375 C 21.484375 23.871094 21.472656 23.875 21.460938 23.875 L 21.121094 23.875 C 21.011719 23.875 20.925781 23.90625 20.863281 23.960938 C 20.800781 24.019531 20.769531 24.113281 20.769531 24.246094 L 20.769531 24.683594 C 20.769531 24.734375 20.777344 24.78125 20.792969 24.828125 C 20.808594 24.871094 20.828125 24.910156 20.859375 24.941406 C 20.890625 24.972656 20.925781 25 20.972656 25.015625 C 21.015625 25.035156 21.066406 25.042969 21.121094 25.042969 L 21.457031 25.042969 C 21.472656 25.042969 21.484375 25.050781 21.496094 25.058594 C 21.503906 25.070312 21.511719 25.082031 21.511719 25.097656 C 21.511719 25.109375 21.503906 25.121094 21.496094 25.132812 C 21.484375 25.140625 21.472656 25.148438 21.460938 25.148438 L 21.121094 25.148438 C 21.046875 25.148438 20.980469 25.136719 20.925781 25.113281 C 20.867188 25.089844 20.820312 25.058594 20.78125 25.019531 C 20.742188 24.980469 20.710938 24.929688 20.691406 24.875 C 20.671875 24.816406 20.660156 24.753906 20.660156 24.683594 Z M 20.660156 24.246094 " fill-opacity="1" fill-rule="nonzero"/><path fill="#ffffff" d="M 23.4375 23.773438 C 23.511719 23.773438 23.574219 23.78125 23.632812 23.796875 C 23.6875 23.8125 23.738281 23.84375 23.777344 23.878906 C 23.816406 23.917969 23.847656 23.96875 23.867188 24.027344 C 23.890625 24.085938 23.898438 24.160156 23.898438 24.246094 L 23.898438 24.683594 C 23.898438 24.75 23.890625 24.816406 23.871094 24.871094 C 23.847656 24.929688 23.820312 24.976562 23.78125 25.019531 C 23.738281 25.058594 23.691406 25.089844 23.632812 25.113281 C 23.578125 25.136719 23.511719 25.144531 23.4375 25.144531 L 23.347656 25.144531 C 23.273438 25.144531 23.207031 25.132812 23.148438 25.113281 C 23.09375 25.089844 23.042969 25.058594 23.003906 25.019531 C 22.964844 24.976562 22.9375 24.929688 22.914062 24.871094 C 22.894531 24.816406 22.886719 24.75 22.886719 24.683594 L 22.886719 24.246094 C 22.886719 24.160156 22.894531 24.085938 22.917969 24.027344 C 22.9375 23.96875 22.96875 23.917969 23.011719 23.878906 C 23.050781 23.84375 23.097656 23.8125 23.15625 23.796875 C 23.210938 23.78125 23.277344 23.773438 23.347656 23.773438 Z M 22.996094 24.683594 C 22.996094 24.734375 23.003906 24.785156 23.019531 24.828125 C 23.035156 24.871094 23.058594 24.910156 23.085938 24.941406 C 23.117188 24.972656 23.152344 25 23.195312 25.019531 C 23.238281 25.035156 23.289062 25.046875 23.347656 25.046875 L 23.4375 25.046875 C 23.496094 25.046875 23.546875 25.035156 23.589844 25.019531 C 23.632812 25 23.671875 24.976562 23.703125 24.941406 C 23.730469 24.910156 23.753906 24.871094 23.769531 24.828125 C 23.785156 24.785156 23.792969 24.738281 23.792969 24.683594 L 23.792969 24.246094 C 23.792969 24.113281 23.761719 24.019531 23.699219 23.964844 C 23.632812 23.90625 23.546875 23.875 23.4375 23.875 L 23.347656 23.875 C 23.238281 23.875 23.152344 23.90625 23.089844 23.964844 C 23.027344 24.019531 22.996094 24.113281 22.996094 24.246094 Z M 22.996094 24.683594 " fill-opacity="1" fill-rule="nonzero"/><path fill="#ffffff" d="M 25.757812 24.488281 L 25.441406 24.488281 L 25.441406 25.09375 C 25.441406 25.109375 25.433594 25.121094 25.425781 25.128906 C 25.414062 25.140625 25.402344 25.144531 25.386719 25.144531 C 25.371094 25.144531 25.359375 25.140625 25.347656 25.128906 C 25.339844 25.121094 25.332031 25.109375 25.332031 25.09375 L 25.332031 23.859375 C 25.332031 23.832031 25.34375 23.8125 25.359375 23.796875 C 25.375 23.78125 25.394531 23.773438 25.421875 23.773438 L 25.863281 23.773438 C 25.914062 23.773438 25.960938 23.78125 26.003906 23.800781 C 26.046875 23.820312 26.085938 23.84375 26.117188 23.878906 C 26.152344 23.910156 26.175781 23.949219 26.195312 23.992188 C 26.214844 24.035156 26.226562 24.082031 26.226562 24.128906 C 26.226562 24.175781 26.214844 24.222656 26.199219 24.265625 C 26.179688 24.304688 26.15625 24.34375 26.125 24.375 C 26.09375 24.410156 26.058594 24.433594 26.019531 24.453125 C 25.976562 24.472656 25.933594 24.484375 25.886719 24.488281 L 26.195312 25.066406 C 26.199219 25.074219 26.199219 25.078125 26.199219 25.078125 C 26.199219 25.085938 26.199219 25.085938 26.199219 25.089844 C 26.199219 25.105469 26.195312 25.117188 26.1875 25.128906 C 26.175781 25.136719 26.164062 25.144531 26.148438 25.144531 C 26.125 25.144531 26.109375 25.132812 26.101562 25.113281 Z M 25.863281 24.382812 C 25.902344 24.382812 25.933594 24.378906 25.964844 24.363281 C 25.996094 24.351562 26.019531 24.335938 26.046875 24.308594 C 26.070312 24.285156 26.085938 24.257812 26.101562 24.226562 C 26.113281 24.199219 26.121094 24.164062 26.121094 24.128906 C 26.121094 24.09375 26.113281 24.0625 26.101562 24.03125 C 26.085938 24 26.070312 23.972656 26.046875 23.949219 C 26.023438 23.925781 25.996094 23.910156 25.964844 23.894531 C 25.933594 23.882812 25.898438 23.875 25.863281 23.875 L 25.441406 23.875 L 25.441406 24.382812 Z M 25.863281 24.382812 " fill-opacity="1" fill-rule="nonzero"/><path fill="#ffffff" d="M 27.65625 23.859375 C 27.65625 23.832031 27.664062 23.8125 27.683594 23.796875 C 27.699219 23.78125 27.71875 23.773438 27.746094 23.773438 L 28.1875 23.773438 C 28.238281 23.773438 28.285156 23.78125 28.328125 23.800781 C 28.375 23.820312 28.410156 23.84375 28.441406 23.878906 C 28.476562 23.910156 28.5 23.949219 28.519531 23.992188 C 28.539062 24.035156 28.546875 24.082031 28.546875 24.128906 C 28.546875 24.175781 28.539062 24.226562 28.519531 24.269531 C 28.5 24.3125 28.476562 24.351562 28.441406 24.382812 C 28.410156 24.414062 28.375 24.441406 28.328125 24.457031 C 28.285156 24.476562 28.238281 24.488281 28.1875 24.488281 L 27.765625 24.488281 L 27.765625 25.089844 C 27.765625 25.105469 27.757812 25.117188 27.75 25.128906 C 27.738281 25.140625 27.726562 25.144531 27.710938 25.144531 C 27.695312 25.144531 27.683594 25.140625 27.675781 25.128906 C 27.664062 25.117188 27.660156 25.105469 27.660156 25.09375 L 27.660156 23.859375 Z M 28.1875 24.382812 C 28.222656 24.382812 28.257812 24.378906 28.285156 24.363281 C 28.316406 24.351562 28.34375 24.335938 28.367188 24.308594 C 28.390625 24.285156 28.410156 24.257812 28.421875 24.226562 C 28.4375 24.199219 28.441406 24.164062 28.441406 24.128906 C 28.441406 24.09375 28.4375 24.0625 28.421875 24.03125 C 28.410156 24 28.390625 23.972656 28.367188 23.949219 C 28.34375 23.925781 28.316406 23.910156 28.285156 23.894531 C 28.257812 23.882812 28.222656 23.875 28.1875 23.875 L 27.761719 23.875 L 27.761719 24.382812 Z M 28.1875 24.382812 " fill-opacity="1" fill-rule="nonzero"/><path fill="#ffffff" d="M 30.53125 23.773438 C 30.605469 23.773438 30.667969 23.78125 30.726562 23.796875 C 30.78125 23.8125 30.832031 23.84375 30.871094 23.878906 C 30.910156 23.917969 30.941406 23.96875 30.960938 24.027344 C 30.984375 24.085938 30.992188 24.160156 30.992188 24.246094 L 30.992188 24.683594 C 30.992188 24.75 30.984375 24.816406 30.964844 24.871094 C 30.941406 24.929688 30.914062 24.976562 30.875 25.019531 C 30.835938 25.058594 30.785156 25.089844 30.730469 25.113281 C 30.671875 25.136719 30.605469 25.144531 30.53125 25.144531 L 30.441406 25.144531 C 30.367188 25.144531 30.304688 25.132812 30.246094 25.113281 C 30.1875 25.089844 30.140625 25.058594 30.101562 25.019531 C 30.0625 24.976562 30.03125 24.929688 30.011719 24.871094 C 29.992188 24.816406 29.980469 24.75 29.980469 24.683594 L 29.980469 24.246094 C 29.980469 24.160156 29.992188 24.085938 30.011719 24.027344 C 30.035156 23.96875 30.066406 23.917969 30.105469 23.878906 C 30.144531 23.84375 30.195312 23.8125 30.25 23.796875 C 30.308594 23.78125 30.371094 23.773438 30.441406 23.773438 Z M 30.089844 24.683594 C 30.089844 24.734375 30.097656 24.785156 30.113281 24.828125 C 30.128906 24.871094 30.152344 24.910156 30.179688 24.941406 C 30.210938 24.972656 30.25 25 30.292969 25.019531 C 30.335938 25.035156 30.386719 25.046875 30.441406 25.046875 L 30.53125 25.046875 C 30.589844 25.046875 30.640625 25.035156 30.683594 25.019531 C 30.730469 25 30.765625 24.976562 30.796875 24.941406 C 30.824219 24.910156 30.847656 24.871094 30.863281 24.828125 C 30.878906 24.785156 30.886719 24.738281 30.886719 24.683594 L 30.886719 24.246094 C 30.886719 24.113281 30.855469 24.019531 30.792969 23.964844 C 30.730469 23.90625 30.640625 23.875 30.53125 23.875 L 30.441406 23.875 C 30.332031 23.875 30.25 23.90625 30.1875 23.964844 C 30.121094 24.019531 30.089844 24.113281 30.089844 24.246094 Z M 30.089844 24.683594 " fill-opacity="1" fill-rule="nonzero"/><path fill="#ffffff" d="M 32.851562 24.488281 L 32.535156 24.488281 L 32.535156 25.09375 C 32.535156 25.109375 32.53125 25.121094 32.519531 25.128906 C 32.507812 25.140625 32.496094 25.144531 32.484375 25.144531 C 32.46875 25.144531 32.453125 25.140625 32.445312 25.128906 C 32.433594 25.121094 32.429688 25.109375 32.429688 25.09375 L 32.429688 23.859375 C 32.429688 23.832031 32.4375 23.8125 32.453125 23.796875 C 32.472656 23.78125 32.492188 23.773438 32.515625 23.773438 L 32.960938 23.773438 C 33.007812 23.773438 33.054688 23.78125 33.101562 23.800781 C 33.144531 23.820312 33.183594 23.84375 33.214844 23.878906 C 33.246094 23.910156 33.269531 23.949219 33.289062 23.992188 C 33.308594 24.035156 33.316406 24.082031 33.316406 24.128906 C 33.316406 24.175781 33.308594 24.222656 33.289062 24.265625 C 33.273438 24.304688 33.25 24.34375 33.21875 24.375 C 33.1875 24.410156 33.152344 24.433594 33.109375 24.453125 C 33.070312 24.472656 33.023438 24.484375 32.976562 24.488281 L 33.289062 25.066406 C 33.289062 25.074219 33.292969 25.078125 33.292969 25.078125 C 33.292969 25.085938 33.292969 25.085938 33.292969 25.089844 C 33.292969 25.105469 33.289062 25.117188 33.277344 25.128906 C 33.265625 25.136719 33.253906 25.144531 33.238281 25.144531 C 33.21875 25.144531 33.203125 25.132812 33.191406 25.113281 Z M 32.957031 24.382812 C 32.992188 24.382812 33.027344 24.378906 33.058594 24.363281 C 33.089844 24.351562 33.117188 24.335938 33.140625 24.308594 C 33.164062 24.285156 33.183594 24.257812 33.195312 24.226562 C 33.207031 24.199219 33.214844 24.164062 33.214844 24.128906 C 33.214844 24.09375 33.207031 24.0625 33.195312 24.03125 C 33.183594 24 33.164062 23.972656 33.140625 23.949219 C 33.117188 23.925781 33.089844 23.910156 33.058594 23.894531 C 33.027344 23.882812 32.996094 23.875 32.957031 23.875 L 32.535156 23.875 L 32.535156 24.382812 Z M 32.957031 24.382812 " fill-opacity="1" fill-rule="nonzero"/><path fill="#ffffff" d="M 35.789062 25.085938 C 35.789062 25.085938 35.789062 25.085938 35.789062 25.089844 C 35.789062 25.09375 35.789062 25.09375 35.789062 25.09375 C 35.789062 25.109375 35.78125 25.121094 35.773438 25.128906 C 35.761719 25.140625 35.75 25.144531 35.734375 25.144531 C 35.722656 25.144531 35.714844 25.144531 35.703125 25.132812 C 35.695312 25.125 35.6875 25.117188 35.683594 25.109375 L 35.566406 24.734375 L 34.96875 24.734375 L 34.851562 25.109375 C 34.847656 25.121094 34.84375 25.128906 34.832031 25.136719 C 34.824219 25.144531 34.8125 25.148438 34.800781 25.148438 C 34.789062 25.148438 34.773438 25.140625 34.765625 25.132812 C 34.753906 25.121094 34.75 25.109375 34.75 25.097656 C 34.75 25.089844 34.75 25.082031 34.75 25.078125 C 34.808594 24.878906 34.871094 24.683594 34.929688 24.484375 C 34.992188 24.285156 35.054688 24.085938 35.113281 23.886719 C 35.121094 23.851562 35.140625 23.824219 35.171875 23.804688 C 35.199219 23.785156 35.230469 23.773438 35.269531 23.773438 C 35.304688 23.773438 35.339844 23.785156 35.367188 23.804688 C 35.394531 23.824219 35.414062 23.851562 35.425781 23.886719 L 35.785156 25.085938 Z M 35.320312 23.917969 C 35.316406 23.910156 35.308594 23.898438 35.300781 23.890625 C 35.289062 23.882812 35.28125 23.878906 35.269531 23.878906 C 35.261719 23.878906 35.25 23.882812 35.242188 23.890625 C 35.230469 23.898438 35.226562 23.910156 35.21875 23.917969 C 35.1875 24.035156 35.148438 24.152344 35.113281 24.277344 C 35.074219 24.398438 35.039062 24.515625 35.003906 24.632812 L 35.539062 24.632812 Z M 35.320312 23.917969 " fill-opacity="1" fill-rule="nonzero"/><path fill="#ffffff" d="M 37.144531 24.246094 C 37.144531 24.160156 37.152344 24.085938 37.175781 24.027344 C 37.195312 23.96875 37.226562 23.917969 37.265625 23.878906 C 37.304688 23.84375 37.355469 23.8125 37.410156 23.796875 C 37.46875 23.78125 37.53125 23.773438 37.605469 23.773438 L 37.941406 23.773438 C 37.957031 23.773438 37.96875 23.777344 37.980469 23.785156 C 37.988281 23.796875 37.992188 23.808594 37.992188 23.824219 C 37.992188 23.835938 37.988281 23.851562 37.980469 23.859375 C 37.96875 23.871094 37.957031 23.875 37.941406 23.875 L 37.605469 23.875 C 37.496094 23.875 37.410156 23.90625 37.34375 23.960938 C 37.28125 24.019531 37.25 24.113281 37.25 24.246094 L 37.25 24.683594 C 37.25 24.734375 37.257812 24.78125 37.273438 24.828125 C 37.289062 24.871094 37.3125 24.910156 37.339844 24.941406 C 37.371094 24.972656 37.410156 25 37.453125 25.015625 C 37.496094 25.035156 37.546875 25.042969 37.605469 25.042969 L 37.9375 25.042969 C 37.953125 25.042969 37.96875 25.050781 37.976562 25.058594 C 37.988281 25.070312 37.992188 25.082031 37.992188 25.097656 C 37.992188 25.109375 37.988281 25.121094 37.980469 25.132812 C 37.96875 25.140625 37.957031 25.148438 37.941406 25.148438 L 37.605469 25.148438 C 37.53125 25.148438 37.464844 25.136719 37.40625 25.113281 C 37.351562 25.089844 37.300781 25.058594 37.261719 25.019531 C 37.222656 24.980469 37.195312 24.929688 37.171875 24.875 C 37.152344 24.816406 37.144531 24.753906 37.144531 24.683594 Z M 37.144531 24.246094 " fill-opacity="1" fill-rule="nonzero"/><path fill="#ffffff" d="M 39.429688 23.824219 C 39.429688 23.8125 39.433594 23.796875 39.441406 23.789062 C 39.453125 23.777344 39.464844 23.773438 39.480469 23.773438 C 39.496094 23.773438 39.507812 23.777344 39.519531 23.789062 C 39.527344 23.796875 39.535156 23.8125 39.535156 23.828125 L 39.535156 25.089844 C 39.535156 25.105469 39.527344 25.121094 39.519531 25.132812 C 39.507812 25.140625 39.496094 25.148438 39.480469 25.148438 C 39.464844 25.148438 39.453125 25.140625 39.441406 25.132812 C 39.433594 25.121094 39.429688 25.109375 39.429688 25.09375 Z M 39.429688 23.824219 " fill-opacity="1" fill-rule="nonzero"/><path fill="#ffffff" d="M 41.519531 23.773438 C 41.59375 23.773438 41.65625 23.78125 41.714844 23.796875 C 41.769531 23.8125 41.820312 23.84375 41.859375 23.878906 C 41.898438 23.917969 41.929688 23.96875 41.949219 24.027344 C 41.972656 24.085938 41.980469 24.160156 41.980469 24.246094 L 41.980469 24.683594 C 41.980469 24.75 41.972656 24.816406 41.949219 24.871094 C 41.929688 24.929688 41.902344 24.976562 41.863281 25.019531 C 41.824219 25.058594 41.773438 25.089844 41.71875 25.113281 C 41.660156 25.136719 41.59375 25.144531 41.519531 25.144531 L 41.429688 25.144531 C 41.355469 25.144531 41.289062 25.132812 41.234375 25.113281 C 41.175781 25.089844 41.125 25.058594 41.085938 25.019531 C 41.046875 24.976562 41.019531 24.929688 40.996094 24.871094 C 40.976562 24.816406 40.96875 24.75 40.96875 24.683594 L 40.96875 24.246094 C 40.96875 24.160156 40.976562 24.085938 41 24.027344 C 41.023438 23.96875 41.050781 23.917969 41.09375 23.878906 C 41.132812 23.84375 41.179688 23.8125 41.238281 23.796875 C 41.296875 23.78125 41.359375 23.773438 41.429688 23.773438 Z M 41.078125 24.683594 C 41.078125 24.734375 41.085938 24.785156 41.101562 24.828125 C 41.117188 24.871094 41.136719 24.910156 41.167969 24.941406 C 41.199219 24.972656 41.234375 25 41.277344 25.019531 C 41.320312 25.035156 41.371094 25.046875 41.429688 25.046875 L 41.519531 25.046875 C 41.578125 25.046875 41.628906 25.035156 41.671875 25.019531 C 41.714844 25 41.753906 24.976562 41.78125 24.941406 C 41.8125 24.910156 41.835938 24.871094 41.851562 24.828125 C 41.867188 24.785156 41.875 24.738281 41.875 24.683594 L 41.875 24.246094 C 41.875 24.113281 41.84375 24.019531 41.777344 23.964844 C 41.714844 23.90625 41.628906 23.875 41.519531 23.875 L 41.429688 23.875 C 41.320312 23.875 41.234375 23.90625 41.171875 23.964844 C 41.109375 24.019531 41.078125 24.113281 41.078125 24.246094 Z M 41.34375 23.667969 C 41.335938 23.675781 41.328125 23.679688 41.316406 23.679688 C 41.296875 23.679688 41.28125 23.667969 41.273438 23.644531 C 41.269531 23.640625 41.269531 23.632812 41.269531 23.628906 C 41.269531 23.605469 41.277344 23.589844 41.296875 23.582031 L 41.613281 23.429688 C 41.617188 23.429688 41.625 23.425781 41.628906 23.425781 C 41.652344 23.425781 41.667969 23.4375 41.679688 23.457031 C 41.683594 23.460938 41.683594 23.46875 41.683594 23.476562 C 41.683594 23.5 41.671875 23.515625 41.65625 23.527344 L 41.34375 23.671875 Z M 41.34375 23.667969 " fill-opacity="1" fill-rule="nonzero"/><path fill="#ffffff" d="M 44.300781 23.824219 C 44.300781 23.8125 44.308594 23.796875 44.316406 23.789062 C 44.328125 23.777344 44.339844 23.773438 44.355469 23.773438 C 44.371094 23.773438 44.382812 23.777344 44.394531 23.789062 C 44.402344 23.796875 44.410156 23.8125 44.410156 23.824219 L 44.410156 25 C 44.410156 25.042969 44.394531 25.078125 44.367188 25.105469 C 44.339844 25.132812 44.304688 25.148438 44.261719 25.148438 C 44.234375 25.148438 44.207031 25.136719 44.183594 25.125 C 44.160156 25.109375 44.140625 25.085938 44.128906 25.058594 L 43.601562 23.902344 C 43.597656 23.898438 43.59375 23.890625 43.585938 23.886719 C 43.582031 23.878906 43.574219 23.878906 43.5625 23.878906 C 43.550781 23.878906 43.542969 23.882812 43.535156 23.890625 C 43.527344 23.898438 43.523438 23.90625 43.523438 23.917969 L 43.523438 25.09375 C 43.523438 25.109375 43.515625 25.121094 43.507812 25.132812 C 43.5 25.140625 43.484375 25.148438 43.46875 25.148438 C 43.457031 25.148438 43.441406 25.140625 43.433594 25.132812 C 43.421875 25.121094 43.417969 25.109375 43.417969 25.09375 L 43.417969 23.917969 C 43.417969 23.878906 43.429688 23.84375 43.460938 23.8125 C 43.488281 23.785156 43.523438 23.773438 43.5625 23.773438 C 43.59375 23.773438 43.621094 23.777344 43.644531 23.796875 C 43.667969 23.8125 43.6875 23.832031 43.699219 23.859375 L 44.226562 25.015625 C 44.230469 25.019531 44.234375 25.027344 44.238281 25.03125 C 44.246094 25.039062 44.253906 25.039062 44.265625 25.039062 C 44.273438 25.039062 44.285156 25.035156 44.289062 25.027344 C 44.296875 25.019531 44.300781 25.011719 44.304688 25 L 44.304688 23.824219 Z M 44.300781 23.824219 " fill-opacity="1" fill-rule="nonzero"/></svg>